<svg width="49" height="49" viewBox="0 0 49 49" fill="none" xmlns="http://www.w3.org/2000/svg">
<path d="M23.4679 0.501844C23.8523 -0.167309 24.8176 -0.167308 25.2021 0.501845L28.0196 5.40635C28.3101 5.91199 28.9699 6.06283 29.4512 5.73365L34.1685 2.50766C34.8078 2.07044 35.6801 2.49471 35.7308 3.26759L36.097 8.84509C36.1355 9.43219 36.6701 9.8593 37.2513 9.76726L42.9018 8.87236C43.6731 8.75021 44.2805 9.51961 43.9827 10.2414L41.8603 15.3858C41.6334 15.9358 41.9339 16.561 42.505 16.7273L47.949 18.3131C48.7035 18.5329 48.9213 19.497 48.3346 20.0198L44.1529 23.7459C43.7065 24.1436 43.7065 24.8414 44.1529 25.2391L48.3346 28.9652C48.9213 29.488 48.7035 30.4521 47.949 30.6719L42.505 32.2577C41.9339 32.424 41.6334 33.0492 41.8603 33.5991L43.9827 38.7435C44.2805 39.4654 43.6731 40.2348 42.9018 40.1126L37.2513 39.2177C36.6701 39.1257 36.1355 39.5528 36.097 40.1399L35.7308 45.7174C35.6801 46.4903 34.8078 46.9146 34.1685 46.4773L29.4512 43.2513C28.9699 42.9222 28.3101 43.073 28.0196 43.5786L25.2021 48.4831C24.8176 49.1523 23.8523 49.1523 23.4679 48.4831L20.6503 43.5786C20.3598 43.073 19.7001 42.9222 19.2187 43.2513L14.5014 46.4773C13.8621 46.9146 12.9898 46.4903 12.9391 45.7174L12.5729 40.1399C12.5344 39.5528 11.9998 39.1257 11.4186 39.2177L5.76807 40.1126C4.99684 40.2348 4.38943 39.4654 4.68723 38.7436L6.80966 33.5991C7.03655 33.0492 6.73606 32.424 6.16491 32.2577L0.720946 30.6719C-0.0335406 30.4521 -0.251371 29.488 0.335347 28.9652L4.51706 25.2391C4.96337 24.8414 4.96337 24.1436 4.51706 23.7459L0.335347 20.0198C-0.251371 19.497 -0.0335414 18.5329 0.720945 18.3131L6.16491 16.7273C6.73606 16.561 7.03655 15.9358 6.80966 15.3858L4.68723 10.2414C4.38943 9.51961 4.99684 8.75021 5.76807 8.87236L11.4186 9.76726C11.9998 9.8593 12.5344 9.43219 12.5729 8.84509L12.9391 3.26759C12.9898 2.49471 13.8621 2.07044 14.5014 2.50766L19.2187 5.73365C19.7001 6.06283 20.3598 5.91199 20.6503 5.40635L23.4679 0.501844Z" fill="#ECD979"/>
</svg>
